<svg aria-hidden="true" style="position: absolute; width: 0; height: 0; overflow: hidden;" version="1.1" xmlns="http://www.w3.org/2000/svg" xmlns:xlink="http://www.w3.org/1999/xlink">
<defs>
<symbol id="icon-times" viewBox="0 0 24 24">
<title>times</title>
<path d="M17.414 6.586c-0.78-0.781-2.048-0.781-2.828 0l-2.586 2.586-2.586-2.586c-0.78-0.781-2.048-0.781-2.828 0-0.781 0.781-0.781 2.047 0 2.828l2.585 2.586-2.585 2.586c-0.781 0.781-0.781 2.047 0 2.828 0.39 0.391 0.902 0.586 1.414 0.586s1.024-0.195 1.414-0.586l2.586-2.586 2.586 2.586c0.39 0.391 0.902 0.586 1.414 0.586s1.024-0.195 1.414-0.586c0.781-0.781 0.781-2.047 0-2.828l-2.585-2.586 2.585-2.586c0.781-0.781 0.781-2.047 0-2.828z"></path>
</symbol>
<symbol id="icon-chevron-right" viewBox="0 0 24 24">
<title>chevron-right</title>
<path d="M8.586 5.586c-0.781 0.781-0.781 2.047 0 2.828l3.585 3.586-3.585 3.586c-0.781 0.781-0.781 2.047 0 2.828 0.39 0.391 0.902 0.586 1.414 0.586s1.024-0.195 1.414-0.586l6.415-6.414-6.415-6.414c-0.78-0.781-2.048-0.781-2.828 0z"></path>
</symbol>
<symbol id="icon-chevron-left" viewBox="0 0 24 24">
<title>chevron-left</title>
<path d="M14.414 5.586c-0.78-0.781-2.048-0.781-2.828 0l-6.415 6.414 6.415 6.414c0.39 0.391 0.902 0.586 1.414 0.586s1.024-0.195 1.414-0.586c0.781-0.781 0.781-2.047 0-2.828l-3.585-3.586 3.585-3.586c0.781-0.781 0.781-2.047 0-2.828z"></path>
</symbol>
<symbol id="icon-th-menu" viewBox="0 0 24 24">
<title>th-menu</title>
<path d="M19 17h-14c-1.103 0-2 0.897-2 2s0.897 2 2 2h14c1.103 0 2-0.897 2-2s-0.897-2-2-2z"></path>
<path d="M19 10h-14c-1.103 0-2 0.897-2 2s0.897 2 2 2h14c1.103 0 2-0.897 2-2s-0.897-2-2-2z"></path>
<path d="M19 3h-14c-1.103 0-2 0.897-2 2s0.897 2 2 2h14c1.103 0 2-0.897 2-2s-0.897-2-2-2z"></path>
</symbol>
<symbol id="icon-location" viewBox="0 0 24 24">
<title>location</title>
<path d="M17.657 5.304c-3.124-3.073-8.189-3.073-11.313 0s-3.124 8.057 0 11.13l5.656 5.565 5.657-5.565c3.124-3.073 3.124-8.056 0-11.13zM12 13.499c-0.668 0-1.295-0.26-1.768-0.732-0.975-0.975-0.975-2.561 0-3.536 0.472-0.472 1.1-0.732 1.768-0.732s1.296 0.26 1.768 0.732c0.975 0.975 0.975 2.562 0 3.536-0.472 0.472-1.1 0.732-1.768 0.732z"></path>
</symbol>
<symbol id="icon-shopping-cart" viewBox="0 0 24 24">
<title>shopping-cart</title>
<path d="M20.756 5.345c-0.191-0.219-0.466-0.345-0.756-0.345h-13.819l-0.195-1.164c-0.080-0.482-0.497-0.836-0.986-0.836h-2.25c-0.553 0-1 0.447-1 1s0.447 1 1 1h1.403l1.86 11.164c0.008 0.045 0.031 0.082 0.045 0.124 0.016 0.053 0.029 0.103 0.054 0.151 0.032 0.066 0.075 0.122 0.12 0.179 0.031 0.039 0.059 0.078 0.095 0.112 0.058 0.054 0.125 0.092 0.193 0.13 0.038 0.021 0.071 0.049 0.112 0.065 0.116 0.047 0.238 0.075 0.367 0.075 0.001 0 11.001 0 11.001 0 0.553 0 1-0.447 1-1s-0.447-1-1-1h-10.153l-0.166-1h11.319c0.498 0 0.92-0.366 0.99-0.858l1-7c0.041-0.288-0.045-0.579-0.234-0.797zM18.847 7l-0.285 2h-3.562v-2h3.847zM14 7v2h-3v-2h3zM14 10v2h-3v-2h3zM10 7v2h-3c-0.053 0-0.101 0.015-0.148 0.030l-0.338-2.030h3.486zM7.014 10h2.986v2h-2.653l-0.333-2zM15 12v-2h3.418l-0.285 2h-3.133z"></path>
<path d="M10 19.5c0 0.828-0.672 1.5-1.5 1.5s-1.5-0.672-1.5-1.5c0-0.828 0.672-1.5 1.5-1.5s1.5 0.672 1.5 1.5z"></path>
<path d="M19 19.5c0 0.828-0.672 1.5-1.5 1.5s-1.5-0.672-1.5-1.5c0-0.828 0.672-1.5 1.5-1.5s1.5 0.672 1.5 1.5z"></path>
</symbol>
</defs>
</svg>
